<svg t="1719479827484" class="icon" viewBox="0 0 1024 1024" version="1.1" xmlns="http://www.w3.org/2000/svg" p-id="23671" width="64" height="64"><path d="M144 880V106.666667h-37.333333v810.666666h810.666666v-37.333333H144z" fill="#0985F6" p-id="23672"></path><path d="M136 114.666667v773.333333h773.333333v21.333333h-794.666666v-794.666666h21.333333M144 106.666667h-37.333333v810.666666h810.666666v-37.333333H144V106.666667z" fill="#006FC1" p-id="23673"></path><path d="M240.906667 229.866667h96v593.546666h-96z" fill="#FFA800" p-id="23674"></path><path d="M326.24 240.533333v572.213334h-74.666667V240.533333h74.666667m10.666667-10.666666h-96v593.546666h96V229.866667z" fill="#E29103" p-id="23675"></path><path d="M400.906667 359.253333h96v464.16h-96z" fill="#23B8BA" p-id="23676"></path><path d="M486.24 369.92v442.666667h-74.666667v-442.666667h74.666667m10.666667-10.666667h-96v464h96v-464z" fill="#14A59E" p-id="23677"></path><path d="M560.906667 229.866667h96v593.546666h-96z" fill="#FFA800" p-id="23678"></path><path d="M646.24 240.533333v572.213334h-74.666667V240.533333h74.666667m10.666667-10.666666h-96v593.546666h96V229.866667z" fill="#E29103" p-id="23679"></path><path d="M720.906667 500.8h96v322.613333h-96z" fill="#23B8BA" p-id="23680"></path><path d="M806.24 511.466667v301.28h-74.666667V511.466667h74.666667m10.666667-10.666667h-96v322.613333h96V500.8z" fill="#14A59E" p-id="23681"></path></svg>
