<svg t="1715417096436" class="icon" viewBox="0 0 1024 1024" version="1.1" xmlns="http://www.w3.org/2000/svg" p-id="4651" width="8" height="8"><path d="M992 128H32a32 32 0 0 0-32 32v704a32 32 0 0 0 32 32h960a32 32 0 0 0 32-32V160a32 32 0 0 0-32-32z m-32 672a32 32 0 0 1-32 32H96a32 32 0 0 1-32-32V224a32 32 0 0 1 32-32h832a32 32 0 0 1 32 32v576zM303.936 388.512L180.576 265.12a30.72 30.72 0 0 0-43.456 43.456L244.576 416l-107.456 107.456a30.688 30.688 0 1 0 43.456 43.424l123.36-123.36c2.432-1.344 4.896-2.56 6.944-4.608A30.304 30.304 0 0 0 319.648 416a30.304 30.304 0 0 0-8.768-22.88c-2.048-2.048-4.512-3.264-6.944-4.608zM608 512h-192a32 32 0 0 0 0 64h192a32 32 0 1 0 0-64z" p-id="4652" fill="#707070"></path></svg>
