<svg t="1715422181985" class="icon" viewBox="0 0 1024 1024" version="1.1" xmlns="http://www.w3.org/2000/svg" p-id="2845" width="64" height="64"><path d="M317.942357 0.322847a104.488099 104.488099 0 0 1 111.652997 89.859765l26.35659 194.90229c4.392765 32.369986-6.823713 64.825269-30.109632 87.727355l-69.090089 67.853292 235.50338 231.4518 71.819574-70.49748a105.042525 105.042525 0 0 1 72.374002-30.066984l8.103159 0.213241 181.468106 11.941497a104.274858 104.274858 0 0 1 97.749682 104.786636l-2.430947 234.351879a84.059609 84.059609 0 0 1-69.047442 81.756606c-289.666599 53.18231-551.100086-2.388299-740.287517-188.334467C21.963825 629.469146-35.099472 370.082772 20.044656 84.894235A84.187554 84.187554 0 0 1 96.38494 17.040943zM305.787619 129.504255l-166.029456 12.538572-2.85743 19.149044c-30.834651 219.041173 17.187226 411.384571 154.045312 553.019255l10.704699 10.789996c145.131837 142.658241 345.19456 192.983121 575.238969 162.063173l16.846041-2.388299 1.791224-174.814987-149.226064-9.766438-80.434512 79.112417a105.213118 105.213118 0 0 1-141.549388 5.203081l-5.714859-5.203081-269.195461-264.589455a103.50719 103.50719 0 0 1 0-147.818673l78.046213-76.809415-21.665288-160.48519zM1005.047565 20.452799a63.972305 63.972305 0 0 1 4.392765 85.594944l-4.392765 4.861896-205.564341 205.521693h84.016961a63.972305 63.972305 0 0 1 63.673768 57.788315l0.298537 6.18399a63.972305 63.972305 0 0 1-57.788316 63.673768l-6.183989 0.298537-239.810849 0.085297A63.972305 63.972305 0 0 1 580.015568 386.630275l-0.298537-6.18399 0.042648-239.853497a63.972305 63.972305 0 0 1 127.646073-6.098693l0.298538 6.141342v86.661149l206.843787-206.843787a63.972305 63.972305 0 0 1 90.499488 0z" fill="#515151" p-id="2846"></path></svg>
