<svg t="1715421986261" class="icon" viewBox="0 0 1024 1024" version="1.1" xmlns="http://www.w3.org/2000/svg" p-id="1777" width="48" height="48"><path d="M765.505691 191.942567H639.627772c0-35.32453-28.636201-63.960731-63.96073-63.960731H447.74558c-35.32453 0-63.960731 28.636201-63.96073 63.960731H257.905908c-36.452213 0-66.00325 29.551036-66.00325 66.00325v59.875692c0 36.452213 29.551036 66.00325 66.00325 66.00325h-2.042519v445.681572c0 36.452213 29.551036 66.00325 66.003249 66.00325h379.679346c36.452213 0 66.00325-29.551036 66.00325-66.00325V383.823736h-2.04252c36.452213 0 66.00325-29.551036 66.00325-66.00325v-59.875693c-0.001023-36.452213-29.551036-66.002226-66.004273-66.002226z m-61.918211 611.470479c-0.101307 3.123131-1.743714 27.813462-27.961842 28.134781H347.905688c-27.988448-0.343831-27.969005-28.459169-27.969005-28.459169l-0.112564 0.031722V383.823736h383.763361v419.58931z m31.980365-483.550041H287.843754c-17.662265 0-31.980365-14.3181-31.980365-31.980365 0-17.662265 14.3181-31.980365 31.980365-31.980366H735.568868c17.662265 0 31.980365 14.3181 31.980366 31.980366-0.001023 17.662265-14.319124 31.980365-31.981389 31.980365z" fill="" p-id="1778"></path><path d="M447.74558 767.588119c17.662265 0 31.980365-14.3181 31.980366-31.980365V479.764831c0-17.662265-14.3181-31.980365-31.980366-31.980365-17.662265 0-31.980365 14.3181-31.980365 31.980365v255.842923c0 17.662265 14.3181 31.980365 31.980365 31.980365zM575.667042 767.588119c17.662265 0 31.980365-14.3181 31.980365-31.980365V479.764831c0-17.662265-14.3181-31.980365-31.980365-31.980365-17.662265 0-31.980365 14.3181-31.980366 31.980365v255.842923c0 17.662265 14.3181 31.980365 31.980366 31.980365z" fill="" p-id="1779"></path></svg>
