<svg t="1711764800822" class="icon" viewBox="0 0 1092 1024" version="1.1" xmlns="http://www.w3.org/2000/svg" p-id="20389" width="200" height="200"><path d="M984.541867 496.093867H196.8128a65.809067 65.809067 0 0 0-62.464 45.806933L65.536 754.8928V180.906667H393.898667c0 72.977067 58.709333 132.027733 131.072 132.027733h328.226133v99.259733a32.836267 32.836267 0 0 0 32.768 32.631467c18.090667 0 32.768-14.813867 32.768-32.9728l-0.136533-0.4096h0.2048V313.002667a65.9456 65.9456 0 0 0-65.604267-66.1504H524.970667a65.7408 65.7408 0 0 1-65.672534-66.013867 65.536 65.536 0 0 0-65.536-65.877333H65.672533c-36.181333 0-65.536 29.4912-65.604266 65.877333v777.284267A65.809067 65.809067 0 0 0 65.7408 1024h787.456c28.603733 0 53.8624-18.432 62.600533-45.806933l134.3488-416.085334a65.9456 65.9456 0 0 0-65.604266-66.013866z m64.7168-347.886934c-40.7552-79.394133-169.506133-245.213867-487.560534-72.362666 0 0 350.208-87.313067 392.533334 107.042133l-58.026667 1.365333 143.36 90.794667L1092.266667 113.0496l-43.008 35.089067z" fill="#2c2c2c" p-id="20390"></path></svg>
