<svg t="1711764532725" class="icon" viewBox="0 0 1024 1024" version="1.1" xmlns="http://www.w3.org/2000/svg" p-id="17996" width="200" height="200"><path d="M 913.722 300.642 H 246.068 a 82.963 82.963 0 0 0 -83.358 83.358 v 556.642 a 84.9383 84.9383 0 0 0 2.76543 22.1235 A 35.9506 35.9506 0 0 0 145.722 948.148 c -31.2099 -9.87654 -45.4321 -50.963 -48.9877 -62.4198 V 141.827 c 1.97531 -16.9877 56.0988 -72.2963 160 -72.2963 s 154.074 59.6543 155.654 71.9012 v 43.0617 a 34.7654 34.7654 0 0 0 34.7654 34.7654 h 326.716 a 63.6049 63.6049 0 0 1 66.7654 53.7284 a 34.7654 34.7654 0 0 0 59.2593 16.5926 a 34.7654 34.7654 0 0 0 7.50617 -35.1605 a 132.346 132.346 0 0 0 -133.531 -105.086 h -291.951 v -7.90123 C 481.92 81.7778 396.192 0 256.735 0 S 27.204 81.7778 27.204 141.432 v 747.062 a 24.8889 24.8889 0 0 0 0 7.50617 a 158.025 158.025 0 0 0 96.3951 116.543 a 33.1852 33.1852 0 0 0 10.6667 0 a 34.3704 34.3704 0 0 0 32.7901 -24.0988 a 28.4444 28.4444 0 0 0 0 -16.1975 a 83.7531 83.7531 0 0 0 79.0123 50.1728 h 667.654 a 83.358 83.358 0 0 0 83.358 -83.358 V 384 a 83.358 83.358 0 0 0 -83.358 -83.358 Z M 935.846 898.765 a 60.0494 60.0494 0 0 1 -59.2593 59.2593 h -592.593 a 59.2593 59.2593 0 0 1 -59.2593 -59.2593 v -474.074 a 58.8642 58.8642 0 0 1 59.6543 -58.0741 h 592.593 A 59.2593 59.2593 0 0 1 935.846 425.481 Z" fill="#2c2c2c" p-id="17997"></path><path d="M 860.389 705.975 h -105.086 v -104.691 a 24.0988 24.0988 0 0 0 -12.2469 -20.9383 a 24.0988 24.0988 0 0 0 -35.9506 20.9383 v 104.691 h -104.691 a 24.0988 24.0988 0 0 0 0 48.1975 h 104.691 v 104.691 a 24.0988 24.0988 0 0 0 35.9506 20.9383 a 24.0988 24.0988 0 0 0 12.2469 -20.9383 v -104.691 h 105.086 a 24.0988 24.0988 0 0 0 0 -48.1975 Z" fill="#2c2c2c" p-id="17998"></path></svg>
