<svg t="1719399729815" class="icon" viewBox="0 0 1024 1024" version="1.1" xmlns="http://www.w3.org/2000/svg" p-id="23083" width="64" height="64"><path d="M927.7 870.1H173.6V472.6l183.8-127.3 254.7 200 315.6-362.8z" fill="#3282FE" opacity=".3" p-id="23084"></path><path d="M612.1 565.3c-4.3 0-8.7-1.4-12.3-4.3L357.3 370.6 204.1 488.5c-8.8 6.7-21.3 5.1-28-3.7s-5.1-21.3 3.7-28l165.5-127.3c7.2-5.6 17.4-5.5 24.5 0.1l239.4 188 284.7-342.9c7.1-8.5 19.7-9.7 28.2-2.6s9.7 19.7 2.6 28.2L627.5 558.1c-4 4.7-9.7 7.2-15.4 7.2z" fill="#3282FE" p-id="23085"></path><path d="M932 862H162V92c0-11-9-20-20-20s-20 9-20 20v66.9H92c-11 0-20 9-20 20s9 20 20 20h30v112.4H92c-11 0-20 9-20 20s9 20 20 20h30v112.5H92c-11 0-20 9-20 20s9 20 20 20h30v112.4H92c-11 0-20 9-20 20s9 20 20 20h30v112.4H92c-11 0-20 9-20 20s9 20 20 20h30V882c0 11 9 20 20 20h66.9v30c0 11 9 20 20 20s20-9 20-20v-30h112.4v30c0 11 9 20 20 20s20-9 20-20v-30h112.5v30c0 11 9 20 20 20s20-9 20-20v-30h112.4v30c0 11 9 20 20 20s20-9 20-20v-30h112.4v30c0 11 9 20 20 20s20-9 20-20v-30H932c11 0 20-9 20-20s-9-20-20-20z" fill="#FAD60E" p-id="23086"></path></svg>
