<svg t="1715915405953" class="icon" viewBox="0 0 1024 1024" version="1.1" xmlns="http://www.w3.org/2000/svg" p-id="17972" width="64" height="64"><path d="M153.6 409.6a107.52 102.4 0 1 0 215.04 0 107.52 102.4 0 1 0-215.04 0Z" fill="#020000" p-id="17973"></path><path d="M409.6 307.2a107.52 102.4 0 1 0 215.04 0 107.52 102.4 0 1 0-215.04 0Z" fill="#020000" p-id="17974"></path><path d="M0 204.8a107.52 102.4 0 1 0 215.04 0 107.52 102.4 0 1 0-215.04 0Z" fill="#020000" p-id="17975"></path><path d="M0 619.52a107.52 102.4 0 1 0 215.04 0 107.52 102.4 0 1 0-215.04 0Z" fill="#020000" p-id="17976"></path><path d="M409.6 563.2a107.52 102.4 0 1 0 215.04 0 107.52 102.4 0 1 0-215.04 0Z" fill="#020000" p-id="17977"></path><path d="M665.6 409.6a107.52 102.4 0 1 0 215.04 0 107.52 102.4 0 1 0-215.04 0Z" fill="#020000" p-id="17978"></path><path d="M757.76 665.6a107.52 102.4 0 1 0 215.04 0 107.52 102.4 0 1 0-215.04 0Z" fill="#020000" p-id="17979"></path><path d="M947.2 819.2H25.6c-15.36 0-25.6 10.24-25.6 25.6s10.24 25.6 25.6 25.6h921.6c15.36 0 25.6-10.24 25.6-25.6s-10.24-25.6-25.6-25.6z" fill="#020000" p-id="17980"></path></svg>
