<svg t="1715419775288" class="icon" viewBox="0 0 1024 1024" version="1.1" xmlns="http://www.w3.org/2000/svg" p-id="23239" width="8" height="8"><path d="M631.467 652.8c0 81.067 68.266 149.333 149.333 149.333S930.133 733.867 930.133 652.8 861.867 503.467 780.8 503.467 631.467 571.733 631.467 652.8z" fill="#1890FF" p-id="23240"></path><path d="M196.267 413.867c0 38.4 34.133 72.533 72.533 72.533s72.533-34.133 72.533-72.533-34.133-72.534-72.533-72.534-72.533 29.867-72.533 72.534z" fill="#13C2C2" p-id="23241"></path><path d="M405.333 256c0 21.333 17.067 38.4 38.4 38.4s38.4-17.067 38.4-38.4-17.066-38.4-38.4-38.4-38.4 17.067-38.4 38.4zM332.8 614.4c0 21.333 17.067 38.4 38.4 38.4s38.4-17.067 38.4-38.4-17.067-38.4-38.4-38.4c-25.6 4.267-38.4 21.333-38.4 38.4z" fill="#FACC14" p-id="23242"></path><path d="M622.933 337.067c0 29.866 25.6 51.2 51.2 51.2 29.867 0 51.2-25.6 51.2-51.2s-25.6-51.2-51.2-51.2c-29.866-4.267-51.2 21.333-51.2 51.2z" fill="#13C2C2" p-id="23243"></path><path d="M529.067 512c0 29.867 25.6 55.467 55.466 55.467C614.4 567.467 640 541.867 640 512s-25.6-55.467-55.467-55.467c-29.866 0-55.466 25.6-55.466 55.467z" fill="#FACC14" p-id="23244"></path><path d="M145.067 891.733c0 4.267 0 4.267-4.267 8.534 0 4.266-4.267 4.266-8.533 4.266H98.133c-4.266 0-4.266 0-8.533-4.266s-4.267-8.534-4.267-8.534v-793.6c0-4.266 0-4.266 4.267-8.533 0-4.267 4.267-4.267 8.533-4.267h34.134c4.266 0 4.266 0 8.533 4.267s4.267 8.533 4.267 8.533v793.6z" fill="#546E7A" p-id="23245"></path><path d="M98.133 925.867c-4.266 0-4.266 0-8.533-4.267s-4.267-4.267-4.267-8.533v-38.4c0-4.267 0-4.267 4.267-8.534 4.267 0 4.267-4.266 8.533-4.266h827.734c4.266 0 4.266 0 8.533 4.266 4.267 0 4.267 4.267 4.267 8.534V908.8c0 4.267 0 4.267-4.267 8.533s-8.533 4.267-8.533 4.267H98.133z" fill="#546E7A" p-id="23246"></path></svg>