<svg t="1719480681909" class="icon" viewBox="0 0 1024 1024" version="1.1" xmlns="http://www.w3.org/2000/svg" p-id="41335" width="16" height="16"><path d="M160.79375 160.83125l-0.009375 702.384375h456.58125V792.96875H231.040625V231.021875h561.9375v386.334375h70.2375V160.784375z" p-id="41336" fill="#1296db"></path><path d="M683.140625 632.6375c23.19375-32.925 37.340625-72.54375 37.340625-115.65 0-111.946875-91.59375-203.5125-203.540625-203.5125-111.91875 0-203.5125 91.565625-203.5125 203.5125 0 111.928125 91.59375 203.5125 203.5125 203.5125 44.203125 0 84.7125-14.840625 118.125-39.075L796.765625 843.125l5.3625-5.3625 0.24375 0.24375 35.60625-35.60625-0.24375-0.24375 7.4625-7.4625-162.05625-162.05625z m-166.2 30.9c-83.04375 0-146.540625-63.515625-146.540625-146.55 0-83.04375 63.496875-146.55 146.540625-146.55S663.5 433.94375 663.5 516.9875s-63.515625 146.55-146.559375 146.55z" p-id="41337" fill="#1296db"></path></svg>
