<svg t="1716903738383" class="icon" viewBox="0 0 1024 1024" version="1.1" xmlns="http://www.w3.org/2000/svg" p-id="2836" width="200" height="200"><path d="M252.068571 906.496h520.283429c89.581714 0 134.144-44.562286 134.144-132.845714V250.331429c0-88.283429-44.562286-132.845714-134.144-132.845715H252.068571c-89.142857 0-134.582857 44.141714-134.582857 132.845715V773.668571c0 88.704 45.44 132.845714 134.582857 132.845715zM186.514286 253.805714c0-44.580571 24.009143-67.291429 66.852571-67.291428h517.723429c42.422857 0 66.432 22.710857 66.432 67.291428v221.568H186.496zM253.348571 837.485714c-42.843429 0-66.852571-22.710857-66.852571-67.291428V547.364571h651.008V770.194286c0 44.580571-24.009143 67.291429-66.432 67.291428z" p-id="2837"></path></svg>
