<svg t="1718188365422" class="icon" viewBox="0 0 1216 1024" version="1.1" xmlns="http://www.w3.org/2000/svg" p-id="20729" width="64" height="64"><path d="M1059.328 784.64H158.272a27.52 27.52 0 0 1-27.52-27.264V160.448a27.52 27.52 0 0 1 27.52-27.328h901.056a27.52 27.52 0 0 1 27.52 27.328v596.736a27.52 27.52 0 0 1-27.52 27.52z m118.528 146.624H38.144a37.952 37.952 0 0 1-38.144-37.76V79.168C0 35.456 35.712 0 79.872 0h1056.256C1180.288 0 1216 35.456 1216 79.232V893.44a37.952 37.952 0 0 1-38.144 37.824zM76.224 855.68H1139.84V79.296a3.584 3.584 0 0 0-3.648-3.648H79.872a3.584 3.584 0 0 0-3.648 3.584v776.32z m-75.456-4.16h1214.464V1024H0.768v-172.544z" fill="#707070" p-id="20730"></path></svg>
